<?xml version="1.0" encoding="UTF-8"?>
<svg id="_레이어_2" data-name="레이어 2" xmlns="http://www.w3.org/2000/svg" viewBox="0 0 787.46 569.54">
  <defs>
    <style>
      .cls-1, .cls-2, .cls-3, .cls-4, .cls-5, .cls-6, .cls-7, .cls-8, .cls-9, .cls-10, .cls-11, .cls-12 {
        stroke: #231815;
        stroke-width: 7px;
      }

      .cls-1, .cls-2, .cls-4, .cls-5, .cls-6, .cls-7, .cls-9, .cls-10, .cls-11, .cls-12 {
        stroke-miterlimit: 10;
      }

      .cls-1, .cls-3, .cls-10 {
        fill: none;
      }

      .cls-2 {
        fill: #fbc52c;
      }

      .cls-3, .cls-8 {
        stroke-linejoin: round;
      }

      .cls-3, .cls-8, .cls-10 {
        stroke-linecap: round;
      }

      .cls-13 {
        fill: #a62c14;
      }

      .cls-4 {
        fill: #924528;
      }

      .cls-14, .cls-12 {
        fill: #faddbe;
      }

      .cls-5 {
        fill: #fff;
      }

      .cls-6 {
        fill: #231815;
      }

      .cls-7 {
        fill: #e58c46;
      }

      .cls-15 {
        fill: #ca712b;
      }

      .cls-8 {
        fill: #fdef2f;
      }

      .cls-16 {
        fill: #8fc65f;
      }

      .cls-9 {
        fill: #ea5514;
      }

      .cls-17, .cls-11 {
        fill: #e03836;
      }
    </style>
  </defs>
  <g id="burger_4" data-name="burger*4">
    <g>
      <g>
        <rect class="cls-12" x="85.63" y="188.78" width="131.81" height="37.33" transform="translate(146.46 464.3) rotate(-142.72)"/>
        <path class="cls-5" d="M3.78,143.84c2.3-6.36,18.19-6.1,35.5.57,2.2.85,4.32,1.76,6.33,2.72.11-.22.2-.45.32-.67-3.44-2.39-7.01-5.19-10.54-8.38-14.87-13.41-23.48-28.21-19.24-33.04,4.25-4.84,19.74,2.12,34.61,15.53,3.68,3.32,6.97,6.72,9.78,10.03.19-.15.4-.29.6-.43-1.57-2.45-3.13-5.04-4.63-7.74-11.91-21.33-16.44-41.48-10.13-45.01,6.31-3.52,21.09,10.91,32.99,32.25,1.59,2.85,3.04,5.68,4.36,8.45.6-.16,1.18-.26,1.75-.37-.18-1.18-.35-2.37-.5-3.58-2.75-21.82.02-40.07,6.2-40.75,6.18-.68,13.42,16.45,16.17,38.28.5,3.95.81,7.78.96,11.41,4.33,2.38,9.16,5.26,15.01,8.27.98-3.41,2.47-6.97,4.51-10.46,7.35-12.59,18.77-19.46,25.5-15.36,6.73,4.1,6.23,17.63-1.12,30.22-3.64,6.24-8.29,11.07-12.87,13.86,3.43,20.19-20.14,40.21-31.83,43.85-25.7,7.99-41.79,3.25-58.99-19.23-.61-.79-1.08-1.58-1.59-2.37-4.91-.81-10.37-2.29-15.99-4.45-17.31-6.67-29.48-17.24-27.19-23.6Z"/>
      </g>
      <g>
        <rect class="cls-12" x="568.29" y="226.13" width="131.81" height="37.33" transform="translate(-32.9 375.58) rotate(-32.2)"/>
        <path class="cls-5" d="M783.56,172.54c-2.72-6.19-18.56-4.85-35.38,2.99-2.14,1-4.19,2.05-6.13,3.15-.13-.21-.23-.43-.37-.64,3.27-2.62,6.64-5.66,9.95-9.08,13.92-14.4,21.51-29.74,16.94-34.28-4.56-4.53-19.55,3.46-33.47,17.85-3.44,3.56-6.49,7.17-9.07,10.67-.2-.13-.42-.26-.62-.39,1.4-2.56,2.78-5.24,4.09-8.03,10.43-22.09,13.58-42.51,7.04-45.59-6.54-3.09-20.29,12.32-30.72,34.42-1.39,2.95-2.65,5.87-3.77,8.73-.61-.11-1.19-.18-1.78-.25.1-1.19.19-2.39.26-3.6,1.26-21.96-2.75-39.97-8.96-40.23-6.21-.26-12.27,17.33-13.53,39.29-.23,3.98-.28,7.82-.18,11.45-4.16,2.67-8.78,5.87-14.42,9.27-1.21-3.34-2.94-6.78-5.21-10.13-8.19-12.06-20.05-18.14-26.49-13.58-6.44,4.55-5.02,18.02,3.17,30.07,4.06,5.98,9.02,10.48,13.78,12.95-2.05,20.38,22.83,38.75,34.74,41.58,26.19,6.22,41.92.4,57.54-23.2.55-.83.97-1.65,1.43-2.47,4.84-1.14,10.19-2.99,15.65-5.53,16.82-7.84,28.24-19.21,25.52-25.39Z"/>
      </g>
      <g>
        <rect class="cls-12" x="440.71" y="385.29" width="60.87" height="124.09"/>
        <path class="cls-9" d="M559.99,491.03c-18.92.06-37.16,3.34-48.79,13.21h-9.62v-38.09h-60.87l.36,38.09h0v39.69c0,8.5,6.89,15.39,15.39,15.39h66.41s26.55.46,33.76.48c18.81.04,44.13,2.01,48.71-27.01,5.37-33.97-38.47-41.77-45.36-41.75Z"/>
        <g>
          <path class="cls-8" d="M456.46,547.61h66.41s26.55.46,33.76.48c18.81.04,48.31-17.13,48.31-17.13,0,0,3.63,32.34-48.31,35-7.2.37-33.76-.48-33.76-.48h-66.41c-8.5,0-15.39-6.89-15.39-15.39v-17.86c0,8.5,6.89,15.39,15.39,15.39Z"/>
          <line class="cls-10" x1="540.09" y1="493.91" x2="540.96" y2="511.57"/>
          <line class="cls-10" x1="566" y1="493.91" x2="566.87" y2="511.57"/>
          <line class="cls-10" x1="553.04" y1="493.91" x2="553.92" y2="511.57"/>
          <path class="cls-13" d="M445.16,526.97s-2.39,17,11.45,16.57h31.79s-37.68-6.15-43.23-16.57Z"/>
        </g>
        <path class="cls-11" d="M436.06,458.65c3.02,3.7,6.07,13.44,2.45,16.38-3.61,2.95-12.52-2.01-15.54-5.71-3.02-3.7-2.54-9.09,1.07-12.04s8.99-2.33,12.01,1.37Z"/>
      </g>
      <g>
        <rect class="cls-12" x="308.78" y="380.54" width="60.87" height="124.09" transform="translate(530.26 966.47) rotate(-162.57)"/>
        <path class="cls-9" d="M241.36,457.67c18.03,5.72,34.46,14.32,42.59,27.21l9.18,2.88,11.41-36.34,58.07,18.23-11.75,36.24h0s-11.89,37.86-11.89,37.86c-2.55,8.11-11.18,12.62-19.29,10.07l-63.36-19.9s-25.47-7.51-32.36-9.66c-17.96-5.6-42.7-11.3-38.38-40.36,5.06-34.01,49.22-28.32,55.78-26.24Z"/>
        <g>
          <path class="cls-8" d="M323.19,542.66l-63.36-19.9s-25.47-7.51-32.36-9.66c-17.96-5.6-40.95-30.82-40.95-30.82,0,0-13.15,29.77,35.6,47.86,6.76,2.51,32.36,9.66,32.36,9.66l63.36,19.9c8.11,2.55,16.74-1.96,19.29-10.07l5.35-17.04c-2.55,8.11-11.18,12.62-19.29,10.07Z"/>
          <line class="cls-10" x1="259.49" y1="466.37" x2="253.36" y2="482.96"/>
          <line class="cls-10" x1="234.77" y1="458.61" x2="228.64" y2="475.2"/>
          <line class="cls-10" x1="247.13" y1="462.49" x2="241" y2="479.08"/>
          <path class="cls-13" d="M340.15,526.36s-2.82,16.94-15.88,12.38l-30.33-9.51s37.8,5.41,46.21-2.86Z"/>
        </g>
        <path class="cls-11" d="M378.83,476.44c-3.92,2.73-13.85,5.04-16.52,1.22-2.67-3.82,2.94-12.33,6.86-15.07,3.92-2.73,9.26-1.85,11.92,1.97,2.67,3.82,1.65,9.14-2.26,11.87Z"/>
      </g>
      <g>
        <rect class="cls-7" x="187.09" y="302.78" width="423.84" height="104.85" rx="33.47" ry="33.47"/>
        <g>
          <path class="cls-16" d="M456.55,366.42c-17.83-1.88-33.16-22.72-48.47-22.89-18.11-.2-33.8,20.58-48.9,21.93-18.28,1.63-37.05-15.79-51.8-13.39-18.47,3.01-32.03,25.83-46.66,27.17-17.9,1.64-30.8-18.41-46.11-24.59-21.49-8.68-42.14-17.14-37.8-33.43,3.55-13.34,30.14-16.57,47.74-28.48,12.68-8.58,20.32-33.95,38.97-39.16,15.37-4.29,35.63,12.56,54.38,11.92,16.2-.56,34.83-19.4,53.13-16.38,18.34,3.03,34.06,24.77,51.72,26.12,18.74,1.44,38.25-17.71,55.68-16.8,19.18,1,35.62,22.03,52.52,24.19,19.52,2.49,42.52-12.75,57.96-6.05,16.88,7.32,18.67,32.74,29.28,48.69,10.11,15.2,17.18,29,2.42,35.48-9.57,4.2-28.05-12.27-43.97-10.81-12.19,1.12-24.93,21.52-39.17,21.41-12.98-.1-25.8-20.63-39.32-21.49-13.49-.85-28.65,17.91-41.6,16.55Z"/>
          <path class="cls-1" d="M456.55,366.42c-17.83-1.88-33.16-22.72-48.47-22.89-18.11-.2-33.8,20.58-48.9,21.93-18.28,1.63-37.05-15.79-51.8-13.39-18.47,3.01-32.03,25.83-46.66,27.17-17.9,1.64-30.8-18.41-46.11-24.59-21.49-8.68-42.14-17.14-37.8-33.43,3.55-13.34,30.14-16.57,47.74-28.48,12.68-8.58,20.32-33.95,38.97-39.16,15.37-4.29,35.63,12.56,54.38,11.92,16.2-.56,34.83-19.4,53.13-16.38,18.34,3.03,34.06,24.77,51.72,26.12,18.74,1.44,38.25-17.71,55.68-16.8,19.18,1,35.62,22.03,52.52,24.19,19.52,2.49,42.52-12.75,57.96-6.05,16.88,7.32,18.67,32.74,29.28,48.69,10.11,15.2,17.18,29,2.42,35.48-9.57,4.2-28.05-12.27-43.97-10.81-12.19,1.12-24.93,21.52-39.17,21.41-12.98-.1-25.8-20.63-39.32-21.49-13.49-.85-28.65,17.91-41.6,16.55Z"/>
        </g>
        <rect class="cls-4" x="185.86" y="254.16" width="425.07" height="81.8" rx="26.11" ry="26.11"/>
        <path class="cls-2" d="M535.84,329.24c-137.12-85.24-353.88-26.9-373.24-42.89-11.52-9.51,48.55-75.25,57.52-87.78,67.94-94.88,419.12,50.98,399.08,61.42-69.62,36.26-64.09,82.29-83.36,69.25"/>
        <ellipse class="cls-11" cx="304.32" cy="220.18" rx="94.69" ry="45.54"/>
        <ellipse class="cls-11" cx="502.35" cy="227.39" rx="94.69" ry="45.54"/>
        <g>
          <path class="cls-16" d="M417.45,255.69c-16.75-1.65-31.39-22.2-45.79-22.03-16.97.21-31.02,21.4-45.19,23.22-17.03,2.19-35.58-14.53-49.36-11.6-17.2,3.66-28.81,26.94-42.44,28.73-16.85,2.22-28.81-17.33-43.04-23.74-19.23-8.65-39.78-17.11-36.21-34.23,2.91-13.95,28.94-19.34,44.14-32.5,11.65-10.09,16.44-36.03,33.98-42.67,14.86-5.63,35.95,9.78,54.27,8.35,15.94-1.25,33.94-20.45,52.01-17.41,19.02,3.2,37.2,24.91,58.18,26.25,20.07,1.28,41.76-17.89,61.93-16.83,20.92,1.1,39.63,22.4,58.82,24.87,21.87,2.82,47.03-12.16,64.08-5.3,20.48,8.23,23.87,34.1,33.05,51.98,9.45,18.42,13.63,34.64-4.6,41.36-11.98,4.41-32.32-12.57-50.82-11.53-14.83.83-30.85,20.79-47.38,20.22-15.9-.54-30.94-21.55-46.41-22.77-17.11-1.35-35.13,17.01-49.19,15.63Z"/>
          <path class="cls-1" d="M417.45,255.69c-16.75-1.65-31.39-22.2-45.79-22.03-16.97.21-31.02,21.4-45.19,23.22-17.03,2.19-35.58-14.53-49.36-11.6-17.2,3.66-28.81,26.94-42.44,28.73-16.85,2.22-28.81-17.33-43.04-23.74-19.23-8.65-39.78-17.11-36.21-34.23,2.91-13.95,28.94-19.34,44.14-32.5,11.65-10.09,16.44-36.03,33.98-42.67,14.86-5.63,35.95,9.78,54.27,8.35,15.94-1.25,33.94-20.45,52.01-17.41,19.02,3.2,37.2,24.91,58.18,26.25,20.07,1.28,41.76-17.89,61.93-16.83,20.92,1.1,39.63,22.4,58.82,24.87,21.87,2.82,47.03-12.16,64.08-5.3,20.48,8.23,23.87,34.1,33.05,51.98,9.45,18.42,13.63,34.64-4.6,41.36-11.98,4.41-32.32-12.57-50.82-11.53-14.83.83-30.85,20.79-47.38,20.22-15.9-.54-30.94-21.55-46.41-22.77-17.11-1.35-35.13,17.01-49.19,15.63Z"/>
        </g>
        <path class="cls-7" d="M607.47,166.69c0,68.84-101.51,50.25-219.58,50.25s-207.99,18.58-207.99-50.25,95.72-124.64,213.79-124.64,213.79,55.8,213.79,124.64Z"/>
        <g>
          <ellipse class="cls-14" cx="496.31" cy="117.8" rx="4.79" ry="8.2" transform="translate(14.1 284.16) rotate(-32.39)"/>
          <ellipse class="cls-14" cx="257.24" cy="162.61" rx="4.79" ry="8.2" transform="translate(-47.09 163.07) rotate(-32.39)"/>
          <ellipse class="cls-14" cx="568.48" cy="166.66" rx="4.79" ry="8.2" transform="translate(139.91 575.65) rotate(-60)"/>
          <ellipse class="cls-14" cx="549.75" cy="117.08" rx="8.2" ry="4.79" transform="translate(336.34 637.06) rotate(-79.71)"/>
          <ellipse class="cls-14" cx="526.22" cy="155.36" rx="8.2" ry="4.79" transform="translate(279.35 645.37) rotate(-79.71)"/>
          <ellipse class="cls-14" cx="282.11" cy="134.24" rx="8.2" ry="4.79" transform="translate(20.06 304.35) rotate(-58.44)"/>
          <ellipse class="cls-14" cx="251.11" cy="112.46" rx="8.2" ry="4.79" transform="translate(14.73 253.28) rotate(-54.91)"/>
          <ellipse class="cls-14" cx="215.11" cy="155.36" rx="8.2" ry="4.79" transform="translate(-35.67 242.06) rotate(-54.91)"/>
        </g>
        <path class="cls-15" d="M390.96,201.97c-127.13,0-186.55,6.2-205.77-20.87,14.43,48.56,97.07,33.27,202.53,33.27,116.24,0,216.18,18.58,216.18-50.25,0-.08,0-.15,0-.23-2.87,52.57-46.56,38.08-212.94,38.08Z"/>
        <path class="cls-15" d="M566.15,390.05H221.26c-6.49,0-12.69-.97-18.38-2.73,8.96,10.15,21.57,16.81,38.63,16.81h313.4c21.72,0,39.53-10.64,46.32-25.68-9.05,7.24-21.06,11.59-35.09,11.59Z"/>
      </g>
      <g>
        <g>
          <g>
            <ellipse class="cls-17" cx="363.43" cy="49.68" rx="32.39" ry="46.18"/>
            <ellipse class="cls-17" cx="369.23" cy="69.36" rx="15.4" ry="25.03"/>
          </g>
          <g>
            <ellipse class="cls-17" cx="429.44" cy="49.68" rx="32.39" ry="46.18"/>
            <ellipse class="cls-17" cx="423.24" cy="68.35" rx="15.4" ry="25.03"/>
          </g>
        </g>
        <g>
          <g>
            <ellipse class="cls-5" cx="363.43" cy="49.68" rx="32.39" ry="46.18"/>
            <ellipse class="cls-6" cx="369.23" cy="69.36" rx="15.4" ry="25.03"/>
          </g>
          <g>
            <ellipse class="cls-5" cx="429.44" cy="49.68" rx="32.39" ry="46.18"/>
            <ellipse class="cls-6" cx="423.24" cy="68.35" rx="15.4" ry="25.03"/>
          </g>
        </g>
        <g>
          <g>
            <ellipse class="cls-1" cx="363.43" cy="49.68" rx="32.39" ry="46.18"/>
            <ellipse class="cls-1" cx="369.23" cy="69.36" rx="15.4" ry="25.03"/>
          </g>
          <g>
            <ellipse class="cls-1" cx="429.44" cy="49.68" rx="32.39" ry="46.18"/>
            <ellipse class="cls-1" cx="423.24" cy="68.35" rx="15.4" ry="25.03"/>
          </g>
        </g>
      </g>
      <path class="cls-3" d="M332.88,141.64s34.99,54.24,65.13-4.99c0,0,37.8,63.57,61.99-4.75"/>
    </g>
  </g>
</svg>