<?xml version="1.0" encoding="UTF-8"?>
<svg id="_레이어_2" data-name="레이어 2" xmlns="http://www.w3.org/2000/svg" viewBox="0 0 299.62 97.42">
  <defs>
    <style>
      .cls-1 {
        fill: none;
        stroke: #231815;
        stroke-miterlimit: 10;
        stroke-width: 7px;
      }

      .cls-2 {
        fill: #8fc65f;
      }
    </style>
  </defs>
  <g id="anatimy">
    <g id="_버거레이어" data-name="버거레이어">
      <g>
        <path class="cls-2" d="M185.47,85.68c-11.38-1.2-20.75-21.72-30.53-21.83-11.56-.13-21.3,20.36-30.93,21.22-11.67,1.04-24.55-17.25-33.97-15.72-11.79,1.92-19.53,23.66-28.88,24.52-11.42,1.05-18.63-18.71-28.4-22.66-13.72-5.54-31.75-8.52-28.98-18.92,2.27-8.51,24.76-6.65,36-14.25,8.09-5.48,9.97-28.15,21.88-31.48,9.81-2.74,23.84,15.12,35.81,14.71,10.34-.36,22.7-19.57,34.38-17.65s20.88,22.99,32.15,23.86c11.96.92,24.88-18.53,36.01-17.95,12.24.64,22.09,21.27,32.88,22.64,12.46,1.59,29.04-15.05,38.89-10.77,10.77,4.67,7.46,26.22,14.24,36.4,6.46,9.71,15.44,19.82,6.01,23.96-6.11,2.68-19.69-14.75-29.85-13.82-7.78.72-15.61,20.96-24.7,20.89-8.28-.06-16.21-20.4-24.85-20.95s-18.9,18.65-27.16,17.77Z"/>
        <path class="cls-1" d="M185.47,85.68c-11.38-1.2-20.75-21.72-30.53-21.83-11.56-.13-21.3,20.36-30.93,21.22-11.67,1.04-24.55-17.25-33.97-15.72-11.79,1.92-19.53,23.66-28.88,24.52-11.42,1.05-18.63-18.71-28.4-22.66-13.72-5.54-31.75-8.52-28.98-18.92,2.27-8.51,24.76-6.65,36-14.25,8.09-5.48,9.97-28.15,21.88-31.48,9.81-2.74,23.84,15.12,35.81,14.71,10.34-.36,22.7-19.57,34.38-17.65s20.88,22.99,32.15,23.86c11.96.92,24.88-18.53,36.01-17.95,12.24.64,22.09,21.27,32.88,22.64,12.46,1.59,29.04-15.05,38.89-10.77,10.77,4.67,7.46,26.22,14.24,36.4,6.46,9.71,15.44,19.82,6.01,23.96-6.11,2.68-19.69-14.75-29.85-13.82-7.78.72-15.61,20.96-24.7,20.89-8.28-.06-16.21-20.4-24.85-20.95s-18.9,18.65-27.16,17.77Z"/>
      </g>
    </g>
  </g>
</svg>