<?xml version="1.0" encoding="UTF-8"?>
<svg id="_레이어_2" data-name="레이어 2" xmlns="http://www.w3.org/2000/svg" viewBox="0 0 309.21 105.14">
  <defs>
    <style>
      .cls-1 {
        fill: none;
        stroke: #231815;
        stroke-miterlimit: 10;
        stroke-width: 7px;
      }

      .cls-2 {
        fill: #8fc65f;
      }
    </style>
  </defs>
  <g id="anatimy">
    <g id="_버거레이어" data-name="버거레이어">
      <g>
        <path class="cls-2" d="M174.16,89.88c-10.69-1.06-19.73-21.39-28.93-21.28-10.83.13-19.29,20.87-28.34,22.03-10.87,1.4-23.93-16.4-32.72-14.53-10.98,2.34-17.17,24.32-25.87,25.47-10.76,1.41-17.38-17.95-26.46-22.04-12.28-5.52-30.42-8.36-28.15-19.29,1.86-8.9,24.39-8.87,34.09-17.27,7.44-6.44,6.84-29.12,18.04-33.36,9.49-3.59,24.51,13.24,36.21,12.32,10.18-.8,21.99-20.23,33.52-18.29,12.14,2.05,22.91,23.08,36.31,23.94,12.81.82,27.08-18.65,39.95-17.97,13.35.7,24.64,21.5,36.9,23.08,13.96,1.8,31.83-14.71,42.72-10.33,13.07,5.26,10.67,26.78,16.52,38.19,6.03,11.76,13.17,23.86,1.53,28.15-7.65,2.82-22.08-15.03-33.9-14.37-9.47.53-19.61,20.5-30.17,20.14-10.15-.35-19.35-20.98-29.22-21.76-10.92-.86-23.06,18.07-32.04,17.18Z"/>
        <path class="cls-1" d="M174.16,89.88c-10.69-1.06-19.73-21.39-28.93-21.28-10.83.13-19.29,20.87-28.34,22.03-10.87,1.4-23.93-16.4-32.72-14.53-10.98,2.34-17.17,24.32-25.87,25.47-10.76,1.41-17.38-17.95-26.46-22.04-12.28-5.52-30.42-8.36-28.15-19.29,1.86-8.9,24.39-8.87,34.09-17.27,7.44-6.44,6.84-29.12,18.04-33.36,9.49-3.59,24.51,13.24,36.21,12.32,10.18-.8,21.99-20.23,33.52-18.29,12.14,2.05,22.91,23.08,36.31,23.94,12.81.82,27.08-18.65,39.95-17.97,13.35.7,24.64,21.5,36.9,23.08,13.96,1.8,31.83-14.71,42.72-10.33,13.07,5.26,10.67,26.78,16.52,38.19,6.03,11.76,13.17,23.86,1.53,28.15-7.65,2.82-22.08-15.03-33.9-14.37-9.47.53-19.61,20.5-30.17,20.14-10.15-.35-19.35-20.98-29.22-21.76-10.92-.86-23.06,18.07-32.04,17.18Z"/>
      </g>
    </g>
  </g>
</svg>