<?xml version="1.0" encoding="UTF-8"?>
<svg id="_레이어_2" data-name="레이어 2" xmlns="http://www.w3.org/2000/svg" viewBox="0 0 223.55 202.18">
  <defs>
    <style>
      .cls-1 {
        fill: none;
      }

      .cls-1, .cls-2, .cls-3, .cls-4, .cls-5, .cls-6, .cls-7 {
        stroke: #231815;
        stroke-miterlimit: 10;
        stroke-width: 5px;
      }

      .cls-2 {
        fill: #fbc52c;
      }

      .cls-3 {
        fill: #924528;
      }

      .cls-8 {
        fill: #faddbe;
      }

      .cls-4 {
        fill: #fff;
      }

      .cls-5 {
        fill: #231815;
      }

      .cls-6 {
        fill: #e58c46;
      }

      .cls-9 {
        fill: #ca712b;
      }

      .cls-10 {
        fill: #8fc65f;
      }

      .cls-7 {
        fill: #e03836;
      }
    </style>
  </defs>
  <g id="burger_4" data-name="burger*4">
    <g>
      <rect class="cls-6" x="40.59" y="115.77" width="185.21" height="45.82" rx="22.91" ry="22.91" transform="translate(-54.14 95.32) rotate(-33.12)"/>
      <path class="cls-9" d="M200.85,111.81l-124.03,80.92c-2.34,1.52-6,2.14-8.46,2.83,5.65,1.61,12.97,1.58,19.11-2.43l112.7-73.53c7.81-5.1,12.35-13.75,11.2-20.85-1.53,4.77-5.48,9.77-10.53,13.06Z"/>
      <g>
        <path class="cls-10" d="M159.5,134.06c-6.97,3.57-23.16-10.16-28.8-6.56-6.68,4.25-.94,24.78-6.15,28.88-6.3,4.96-24.61-5.52-29.44-1.11-6.04,5.51,1.74,25.68-3.29,29.66-6.16,4.87-20.25-9.33-27.32-7.94-9.94,1.96-23.78,11.08-26.08,4.08-1.88-5.73,17.62-12.84,21.22-21.4,2.59-6.17-10.1-23.17-4.52-29.53,4.6-5.24,23.51,4.41,30.22-.3,5.8-4.07,2.61-25.18,10.02-28.45,7.44-3.27,23.36,11.03,30.15,7.31,7.2-3.95,4.24-25.43,10.83-29.26,7.26-4.21,23.58,9.5,30.28,6.25,7.74-3.75,9.11-25.44,16.36-26.67,7.92-1.35,13.37,18.25,21.06,21.56,7.33,3.15,20.15,4.42,16.3,10.31-2.5,3.82-21.41-5.29-26.89-.96-4.19,3.32,2.55,22.99-2.68,26.35-4.77,3.06-20.18-11.03-25.34-8.12s-.87,23.32-5.93,25.91Z"/>
        <path class="cls-1" d="M159.5,134.06c-6.97,3.57-23.16-10.16-28.8-6.56-6.68,4.25-.94,24.78-6.15,28.88-6.3,4.96-24.61-5.52-29.44-1.11-6.04,5.51,1.74,25.68-3.29,29.66-6.16,4.87-20.25-9.33-27.32-7.94-9.94,1.96-23.78,11.08-26.08,4.08-1.88-5.73,17.62-12.84,21.22-21.4,2.59-6.17-10.1-23.17-4.52-29.53,4.6-5.24,23.51,4.41,30.22-.3,5.8-4.07,2.61-25.18,10.02-28.45,7.44-3.27,23.36,11.03,30.15,7.31,7.2-3.95,4.24-25.43,10.83-29.26,7.26-4.21,23.58,9.5,30.28,6.25,7.74-3.75,9.11-25.44,16.36-26.67,7.92-1.35,13.37,18.25,21.06,21.56,7.33,3.15,20.15,4.42,16.3,10.31-2.5,3.82-21.41-5.29-26.89-.96-4.19,3.32,2.55,22.99-2.68,26.35-4.77,3.06-20.18-11.03-25.34-8.12s-.87,23.32-5.93,25.91Z"/>
      </g>
      <rect class="cls-3" x="25.73" y="98.94" width="185.75" height="35.75" rx="17.87" ry="17.87" transform="translate(-44.56 83.79) rotate(-33.12)"/>
      <path class="cls-2" d="M177.08,96.51c-70.54,1.54-135.94,74.65-146.84,73.43-6.49-.73-.2-39.13.09-45.86,2.21-50.95,165.56-81.42,160.72-72.82-16.82,29.89-3.81,45.42-13.97,45.25"/>
      <ellipse class="cls-7" cx="66.3" cy="111.87" rx="41.38" ry="19.9" transform="translate(-50.36 54.41) rotate(-33.12)"/>
      <ellipse class="cls-7" cx="140.5" cy="67.23" rx="41.38" ry="19.9" transform="translate(-13.9 87.7) rotate(-33.12)"/>
      <g>
        <path class="cls-10" d="M118.78,102.86c-6.53,3.4-22.53-10.31-27.76-6.8-6.16,4.13.55,24.21-4.2,28.26-5.71,4.87-24.14-5.08-28.48-.72-5.42,5.45,3.55,24.99-1.01,28.9-5.64,4.83-19.22-9.31-25.95-8.26-9.1,1.42-23.02,10.86-25.8,3.74-2.27-5.8,16.64-14.49,19.05-22.94,1.85-6.48-12.55-21.98-7.72-28.6,4.09-5.61,23.48,2.78,29.84-2.12,5.54-4.26,1.85-25.22,9.19-28.42,7.73-3.37,24.59,10.3,32.58,5.78s5.42-26.3,13.05-30.72,25.13,8.68,32.74,5c8.68-4.19,10.76-26.28,18.64-27.84,9.46-1.88,15.18,17.2,22.81,21.55,7.86,4.48,20.57,7.89,15.5,14.71-3.33,4.48-22.69-4.79-29.21.01-5.23,3.85-.07,24.33-6.26,28.07s-22.09-10.26-28.04-7.02c-6.58,3.59-3.49,24.56-8.97,27.41Z"/>
        <path class="cls-1" d="M118.78,102.86c-6.53,3.4-22.53-10.31-27.76-6.8-6.16,4.13.55,24.21-4.2,28.26-5.71,4.87-24.14-5.08-28.48-.72-5.42,5.45,3.55,24.99-1.01,28.9-5.64,4.83-19.22-9.31-25.95-8.26-9.1,1.42-23.02,10.86-25.8,3.74-2.27-5.8,16.64-14.49,19.05-22.94,1.85-6.48-12.55-21.98-7.72-28.6,4.09-5.61,23.48,2.78,29.84-2.12,5.54-4.26,1.85-25.22,9.19-28.42,7.73-3.37,24.59,10.3,32.58,5.78s5.42-26.3,13.05-30.72,25.13,8.68,32.74,5c8.68-4.19,10.76-26.28,18.64-27.84,9.46-1.88,15.18,17.2,22.81,21.55,7.86,4.48,20.57,7.89,15.5,14.71-3.33,4.48-22.69-4.79-29.21.01-5.23,3.85-.07,24.33-6.26,28.07s-22.09-10.26-28.04-7.02c-6.58,3.59-3.49,24.56-8.97,27.41Z"/>
      </g>
      <path class="cls-6" d="M164.48,19.91c16.44,25.19-25.15,42.63-68.36,70.83-43.21,28.19-71.68,56.47-88.12,31.27C-8.45,96.82,13.26,53.54,56.47,25.35c43.21-28.19,91.57-30.63,108-5.43Z"/>
      <path class="cls-9" d="M93.39,84.7c-45.8,29.88-66.32,45.22-79.7,39.83,16.79,14.38,43.51-9.74,81.5-34.53,41.87-27.32,83.55-48.29,66.02-69.44-.02-.03-.13-.21-.15-.24,11.52,19.91-7.73,25.27-67.67,64.37Z"/>
      <g>
        <ellipse class="cls-8" cx="112.12" cy="28.56" rx="2.09" ry="3.58" transform="translate(39.65 118.75) rotate(-65.51)"/>
        <ellipse class="cls-8" cx="35.32" cy="102.05" rx="2.09" ry="3.58" transform="translate(-72.19 91.89) rotate(-65.51)"/>
        <ellipse class="cls-8" cx="150.2" cy="29.21" rx="3.58" ry="2.09" transform="translate(-1.37 8.23) rotate(-3.12)"/>
        <ellipse class="cls-8" cx="131.5" cy="15.54" rx="2.09" ry="3.58" transform="translate(4.27 52.24) rotate(-22.83)"/>
        <ellipse class="cls-8" cx="132.04" cy="35.17" rx="2.09" ry="3.58" transform="translate(-3.3 53.99) rotate(-22.83)"/>
        <ellipse class="cls-8" cx="37.65" cy="85.73" rx="2.09" ry="3.58" transform="translate(-2.32 1.06) rotate(-1.56)"/>
        <ellipse class="cls-8" cx="21.1" cy="85.16" rx="3.58" ry="2.09" transform="translate(-64.73 103.33) rotate(-88.03)"/>
        <ellipse class="cls-8" cx="18.17" cy="109.46" rx="3.58" ry="2.09" transform="translate(-91.84 123.86) rotate(-88.03)"/>
      </g>
      <g>
        <g>
          <ellipse class="cls-4" cx="49.47" cy="38.8" rx="14.15" ry="20.18" transform="translate(-13.16 33.33) rotate(-33.12)"/>
          <ellipse class="cls-5" cx="56.29" cy="44.62" rx="6.73" ry="10.94" transform="translate(-15.24 38.01) rotate(-33.12)"/>
        </g>
        <g>
          <ellipse class="cls-4" cx="73.63" cy="23.04" rx="14.15" ry="20.18" transform="translate(-.62 43.97) rotate(-33.12)"/>
          <ellipse class="cls-5" cx="75.81" cy="31.35" rx="6.73" ry="10.94" transform="translate(-4.81 46.52) rotate(-33.12)"/>
        </g>
      </g>
    </g>
  </g>
</svg>