<?xml version="1.0" encoding="UTF-8"?>
<svg id="_레이어_2" data-name="레이어 2" xmlns="http://www.w3.org/2000/svg" viewBox="0 0 212.03 197.59">
  <defs>
    <style>
      .cls-1 {
        fill: none;
      }

      .cls-1, .cls-2, .cls-3, .cls-4, .cls-5, .cls-6, .cls-7 {
        stroke: #231815;
        stroke-miterlimit: 10;
        stroke-width: 5px;
      }

      .cls-2 {
        fill: #fbc52c;
      }

      .cls-3 {
        fill: #924528;
      }

      .cls-8 {
        fill: #faddbe;
      }

      .cls-4 {
        fill: #fff;
      }

      .cls-5 {
        fill: #231815;
      }

      .cls-6 {
        fill: #e58c46;
      }

      .cls-9 {
        fill: #ca712b;
      }

      .cls-10 {
        fill: #8fc65f;
      }

      .cls-7 {
        fill: #e03836;
      }
    </style>
  </defs>
  <g id="burger_4" data-name="burger*4">
    <g>
      <rect class="cls-6" x="2.3" y="126.7" width="185.21" height="45.82" rx="22.91" ry="22.91" transform="translate(53.55 -22.67) rotate(18.89)"/>
      <path class="cls-9" d="M157.73,186.39L17.61,138.44c-2.64-.9-5.37-3.41-7.44-4.93,2.21,5.44,6.74,11.2,13.67,13.57l127.32,43.57c8.82,3.02,18.44,1.27,23.33-4-4.7,1.73-11.07,1.69-16.77-.26Z"/>
      <g>
        <path class="cls-10" d="M114.74,167.5c-7.11-3.3-6.25-24.51-12.56-26.74-7.46-2.64-20.11,14.51-26.54,12.93-7.79-1.91-10.8-22.8-17.24-23.89-8.06-1.37-19.17,17.18-25.41,15.66-7.63-1.85-5.11-21.7-10.56-26.42-7.66-6.63-23.37-11.92-19.27-18.05,3.36-5.01,20.96,5.99,29.92,3.55,6.45-1.75,12.05-22.22,20.49-21.74,6.96.4,10.99,21.25,18.84,23.63,6.78,2.06,21.45-13.45,28.59-9.61s5.69,25.2,12.79,28.26c7.55,3.25,22.65-12.31,29.73-9.47,7.79,3.13,7.03,24.43,13.71,27.72,7.72,3.79,25.66-8.48,31.09-3.52,5.94,5.41-6.16,21.77-4.03,29.87s8.92,18.6,1.9,19.19c-4.55.38-9.01-20.13-15.79-21.78-5.2-1.26-16.54,16.16-22.42,14.1-5.35-1.88-3.73-22.7-9.2-24.97s-18.91,13.67-24.07,11.27Z"/>
        <path class="cls-1" d="M114.74,167.5c-7.11-3.3-6.25-24.51-12.56-26.74-7.46-2.64-20.11,14.51-26.54,12.93-7.79-1.91-10.8-22.8-17.24-23.89-8.06-1.37-19.17,17.18-25.41,15.66-7.63-1.85-5.11-21.7-10.56-26.42-7.66-6.63-23.37-11.92-19.27-18.05,3.36-5.01,20.96,5.99,29.92,3.55,6.45-1.75,12.05-22.22,20.49-21.74,6.96.4,10.99,21.25,18.84,23.63,6.78,2.06,21.45-13.45,28.59-9.61s5.69,25.2,12.79,28.26c7.55,3.25,22.65-12.31,29.73-9.47,7.79,3.13,7.03,24.43,13.71,27.72,7.72,3.79,25.66-8.48,31.09-3.52,5.94,5.41-6.16,21.77-4.03,29.87s8.92,18.6,1.9,19.19c-4.55.38-9.01-20.13-15.79-21.78-5.2-1.26-16.54,16.16-22.42,14.1-5.35-1.88-3.73-22.7-9.2-24.97s-18.91,13.67-24.07,11.27Z"/>
      </g>
      <rect class="cls-3" x="10.29" y="106.78" width="185.75" height="35.75" rx="17.87" ry="17.87" transform="translate(45.91 -26.69) rotate(18.89)"/>
      <path class="cls-2" d="M155.16,158.23C110.52,103.59,12.65,97.04,6.91,87.7c-3.42-5.56,30.72-24.24,36.2-28.15,41.51-29.62,166.07,80.37,156.31,81.85-33.91,5.14-38.14,24.96-44.26,16.84"/>
      <ellipse class="cls-7" cx="74.86" cy="80.38" rx="19.9" ry="41.38" transform="translate(-25.43 125.19) rotate(-71.11)"/>
      <ellipse class="cls-7" cx="155.72" cy="111.38" rx="19.9" ry="41.38" transform="translate(-.08 222.65) rotate(-71.11)"/>
      <g>
        <path class="cls-10" d="M114.27,116.2c-6.69-3.05-5.74-24.1-11.72-26.07-7.04-2.32-18.74,15.33-24.86,14.08-7.35-1.51-10.85-22.15-16.97-22.89-7.63-.92-17.51,18.18-23.4,16.99-7.28-1.47-4.49-20.88-9.46-25.54-6.73-6.3-22.72-11.46-18.83-18.04,3.17-5.36,21.66,4.2,29.8.9,6.24-2.52,9.6-23.42,17.79-23.69,6.94-.22,12.26,20.22,20.04,22.22,6.77,1.74,21.01-14.06,28.05-10.25,7.41,4.02,7.01,25.72,15.5,29.24s24.06-11.92,32.25-8.63c8.49,3.42,8.62,25.15,16.21,28.89,8.64,4.26,27.33-7.69,33.42-2.44,7.3,6.3-4.21,22.55-2.95,31.24,1.3,8.95,6.44,21.07-2.04,21.27-5.58.13-10.19-20.83-17.99-23.01-6.25-1.75-19.22,14.92-25.98,12.35s-5.51-23.73-11.73-26.42c-6.88-2.98-21.51,12.36-27.12,9.8Z"/>
        <path class="cls-1" d="M114.27,116.2c-6.69-3.05-5.74-24.1-11.72-26.07-7.04-2.32-18.74,15.33-24.86,14.08-7.35-1.51-10.85-22.15-16.97-22.89-7.63-.92-17.51,18.18-23.4,16.99-7.28-1.47-4.49-20.88-9.46-25.54-6.73-6.3-22.72-11.46-18.83-18.04,3.17-5.36,21.66,4.2,29.8.9,6.24-2.52,9.6-23.42,17.79-23.69,6.94-.22,12.26,20.22,20.04,22.22,6.77,1.74,21.01-14.06,28.05-10.25,7.41,4.02,7.01,25.72,15.5,29.24s24.06-11.92,32.25-8.63c8.49,3.42,8.62,25.15,16.21,28.89,8.64,4.26,27.33-7.69,33.42-2.44,7.3,6.3-4.21,22.55-2.95,31.24,1.3,8.95,6.44,21.07-2.04,21.27-5.58.13-10.19-20.83-17.99-23.01-6.25-1.75-19.22,14.92-25.98,12.35s-5.51-23.73-11.73-26.42c-6.88-2.98-21.51,12.36-27.12,9.8Z"/>
      </g>
      <path class="cls-6" d="M207.77,101.16c-9.74,28.46-49.08,6.42-97.9-10.29-48.82-16.7-88.62-21.74-78.88-50.2C40.73,12.21,88.2,2.68,137.01,19.38c48.82,16.7,80.5,53.32,70.76,81.78Z"/>
      <path class="cls-9" d="M112.96,85.01c-51.74-17.7-76.46-24.43-80.45-38.3-1,22.09,34.46,28.29,77.37,42.98,47.3,16.19,89.48,36.12,95.36,9.29,0-.03.09-.23.1-.26-8.6,21.34-24.68,9.46-92.38-13.71Z"/>
      <g>
        <ellipse class="cls-8" cx="168.73" cy="65.22" rx="2.09" ry="3.58" transform="translate(-10.56 41.18) rotate(-13.5)"/>
        <ellipse class="cls-8" cx="63.54" cy="49.92" rx="2.09" ry="3.58" transform="translate(-9.9 16.21) rotate(-13.5)"/>
        <ellipse class="cls-8" cx="191.65" cy="95.63" rx="2.09" ry="3.58" transform="translate(-15.62 149.59) rotate(-41.11)"/>
        <ellipse class="cls-8" cx="190.92" cy="72.48" rx="3.58" ry="2.09" transform="translate(34.56 203.83) rotate(-60.82)"/>
        <ellipse class="cls-8" cx="175.78" cy="84.98" rx="3.58" ry="2.09" transform="translate(15.88 197.02) rotate(-60.82)"/>
        <ellipse class="cls-8" cx="77.84" cy="41.71" rx="3.58" ry="2.09" transform="translate(-8.74 59.11) rotate(-39.55)"/>
        <ellipse class="cls-8" cx="68.1" cy="28.32" rx="3.58" ry="2.09" transform="translate(-3.63 45.46) rotate(-36.02)"/>
        <ellipse class="cls-8" cx="47.15" cy="40.96" rx="3.58" ry="2.09" transform="translate(-15.08 35.56) rotate(-36.02)"/>
      </g>
      <g>
        <g>
          <ellipse class="cls-4" cx="122.1" cy="22.14" rx="20.18" ry="14.15" transform="translate(61.62 130.49) rotate(-71.11)"/>
          <ellipse class="cls-5" cx="121.71" cy="31.1" rx="10.94" ry="6.73" transform="translate(52.88 136.18) rotate(-71.11)"/>
        </g>
        <g>
          <ellipse class="cls-4" cx="149.39" cy="31.48" rx="20.18" ry="14.15" transform="translate(71.24 162.63) rotate(-71.11)"/>
          <ellipse class="cls-5" cx="144.18" cy="38.32" rx="10.94" ry="6.73" transform="translate(61.25 162.33) rotate(-71.11)"/>
        </g>
      </g>
    </g>
  </g>
</svg>