<?xml version="1.0" encoding="UTF-8"?>
<svg id="_레이어_2" data-name="레이어 2" xmlns="http://www.w3.org/2000/svg" viewBox="0 0 212.31 211.86">
  <defs>
    <style>
      .cls-1 {
        fill: none;
      }

      .cls-1, .cls-2, .cls-3, .cls-4, .cls-5, .cls-6, .cls-7 {
        stroke: #231815;
        stroke-miterlimit: 10;
        stroke-width: 5px;
      }

      .cls-2 {
        fill: #fbc52c;
      }

      .cls-3 {
        fill: #924528;
      }

      .cls-8 {
        fill: #faddbe;
      }

      .cls-4 {
        fill: #fff;
      }

      .cls-5 {
        fill: #231815;
      }

      .cls-6 {
        fill: #e58c46;
      }

      .cls-9 {
        fill: #ca712b;
      }

      .cls-10 {
        fill: #8fc65f;
      }

      .cls-7 {
        fill: #e03836;
      }
    </style>
  </defs>
  <g id="burger_4" data-name="burger*4">
    <g>
      <rect class="cls-6" x="-13.37" y="117.44" width="185.21" height="45.82" rx="22.91" ry="22.91" transform="translate(107.21 -18.37) rotate(39.45)"/>
      <path class="cls-9" d="M125.14,196.84L10.77,102.75c-2.15-1.77-3.83-5.08-5.23-7.23.15,5.87,2.38,12.85,8.04,17.5l103.92,85.5c7.2,5.92,16.82,7.66,23.25,4.44-5.01-.03-10.96-2.3-15.61-6.13Z"/>
      <g>
        <path class="cls-10" d="M91.52,164.06c-5.5-5.58,2.76-25.14-2.37-29.45-6.06-5.09-23.92,6.52-29.39,2.79-6.62-4.53-2.11-25.14-7.76-28.42-7.07-4.11-23.98,9.35-29.29,5.74-6.49-4.41,2.84-22.11-.61-28.45-4.84-8.89-17.69-19.37-11.7-23.66,4.9-3.51,17.53,12.96,26.77,13.83,6.66.62,19.08-16.58,26.82-13.16,6.38,2.82,2.83,23.76,9.34,28.74,5.62,4.31,24.81-5.06,30.14,1.04s-3.52,25.59,2.06,30.95c5.93,5.69,25.53-3.58,31.16,1.57,6.19,5.66-2,25.35,3.11,30.77,5.89,6.26,27,1.07,30.35,7.62,3.66,7.16-13.41,18.23-14.26,26.55s1.82,20.55-4.96,18.64c-4.39-1.24-1.37-22.01-7.14-25.94-4.43-3.01-21.16,9.32-25.94,5.33-4.35-3.64,4.48-22.56.15-26.61-4.31-4.03-22.5,6.16-26.49,2.1Z"/>
        <path class="cls-1" d="M91.52,164.06c-5.5-5.58,2.76-25.14-2.37-29.45-6.06-5.09-23.92,6.52-29.39,2.79-6.62-4.53-2.11-25.14-7.76-28.42-7.07-4.11-23.98,9.35-29.29,5.74-6.49-4.41,2.84-22.11-.61-28.45-4.84-8.89-17.69-19.37-11.7-23.66,4.9-3.51,17.53,12.96,26.77,13.83,6.66.62,19.08-16.58,26.82-13.16,6.38,2.82,2.83,23.76,9.34,28.74,5.62,4.31,24.81-5.06,30.14,1.04s-3.52,25.59,2.06,30.95c5.93,5.69,25.53-3.58,31.16,1.57,6.19,5.66-2,25.35,3.11,30.77,5.89,6.26,27,1.07,30.35,7.62,3.66,7.16-13.41,18.23-14.26,26.55s1.82,20.55-4.96,18.64c-4.39-1.24-1.37-22.01-7.14-25.94-4.43-3.01-21.16,9.32-25.94,5.33-4.35-3.64,4.48-22.56.15-26.61-4.31-4.03-22.5,6.16-26.49,2.1Z"/>
      </g>
      <rect class="cls-3" x="2.85" y="102.01" width="185.75" height="35.75" rx="17.87" ry="17.87" transform="translate(97.97 -33.51) rotate(39.45)"/>
      <path class="cls-2" d="M132.61,169.58C110.01,102.74,20.67,62.25,18.57,51.48c-1.25-6.41,37.28-11.91,43.78-13.65,49.27-13.16,127.28,133.57,117.62,131.53-33.56-7.09-44.48,9.98-47.36.22"/>
      <ellipse class="cls-7" cx="84.77" cy="68.49" rx="19.9" ry="41.38" transform="translate(-21.98 90.44) rotate(-50.55)"/>
      <ellipse class="cls-7" cx="149.59" cy="125.9" rx="19.9" ry="41.38" transform="translate(-42.68 161.43) rotate(-50.55)"/>
      <g>
        <path class="cls-10" d="M109.09,115.86c-5.19-5.21,3.08-24.58-1.83-28.52-5.78-4.64-22.93,7.78-28.22,4.45-6.36-3.99-2.38-24.55-7.85-27.39-6.82-3.54-22.78,10.87-27.87,7.69-6.3-3.93,3.13-21.12.1-27.23-4.09-8.26-17.25-18.71-11.3-23.5,4.85-3.9,18.81,11.53,27.59,11.31,6.73-.17,17.21-18.56,24.98-15.93,6.58,2.23,4.38,23.23,10.96,27.84,5.73,4.01,24.61-5.79,29.87.25,5.53,6.36-2.46,26.54,4.25,32.82,6.42,6,26.71-2.71,33.22,3.25,6.75,6.18-.76,26.58,5.04,32.74,6.6,7.02,28.29,2.4,32.15,9.44,4.63,8.46-11.86,19.64-13.73,28.22-1.92,8.84-1.37,21.99-9.39,19.2-5.27-1.84-2.23-23.08-8.76-27.87-5.24-3.84-23.24,7.22-28.66,2.44-5.21-4.6,3.18-24.15-1.71-28.85-5.4-5.2-24.48,4.02-28.84-.35Z"/>
        <path class="cls-1" d="M109.09,115.86c-5.19-5.21,3.08-24.58-1.83-28.52-5.78-4.64-22.93,7.78-28.22,4.45-6.36-3.99-2.38-24.55-7.85-27.39-6.82-3.54-22.78,10.87-27.87,7.69-6.3-3.93,3.13-21.12.1-27.23-4.09-8.26-17.25-18.71-11.3-23.5,4.85-3.9,18.81,11.53,27.59,11.31,6.73-.17,17.21-18.56,24.98-15.93,6.58,2.23,4.38,23.23,10.96,27.84,5.73,4.01,24.61-5.79,29.87.25,5.53,6.36-2.46,26.54,4.25,32.82,6.42,6,26.71-2.71,33.22,3.25,6.75,6.18-.76,26.58,5.04,32.74,6.6,7.02,28.29,2.4,32.15,9.44,4.63,8.46-11.86,19.64-13.73,28.22-1.92,8.84-1.37,21.99-9.39,19.2-5.27-1.84-2.23-23.08-8.76-27.87-5.24-3.84-23.24,7.22-28.66,2.44-5.21-4.6,3.18-24.15-1.71-28.85-5.4-5.2-24.48,4.02-28.84-.35Z"/>
      </g>
      <path class="cls-6" d="M201.92,134.61c-19.11,23.23-48.21-11.22-88.05-44.01C74.02,57.82,38.52,39.13,57.63,15.9,76.74-7.33,124.53.41,164.38,33.19c39.84,32.78,56.65,78.19,37.54,101.42Z"/>
      <path class="cls-9" d="M118.81,86.2C76.59,51.46,55.8,36.48,56.94,22.09c-8.69,20.33,22.33,38.59,57.36,67.41,38.61,31.77,71.1,65.24,86.03,42.18.02-.03.16-.18.18-.21-15.55,16.96-26.43.19-81.69-45.27Z"/>
      <g>
        <ellipse class="cls-8" cx="177.98" cy="87.25" rx="3.58" ry="2.09" transform="translate(69.52 253.16) rotate(-82.94)"/>
        <ellipse class="cls-8" cx="84.86" cy="35.99" rx="3.58" ry="2.09" transform="translate(38.71 115.79) rotate(-82.94)"/>
        <ellipse class="cls-8" cx="188.77" cy="123.77" rx="2.09" ry="3.58" transform="translate(-31.44 74.16) rotate(-20.55)"/>
        <ellipse class="cls-8" cx="196.21" cy="101.84" rx="3.58" ry="2.09" transform="translate(-19.33 150.94) rotate(-40.26)"/>
        <ellipse class="cls-8" cx="177.65" cy="108.23" rx="3.58" ry="2.09" transform="translate(-27.86 140.46) rotate(-40.26)"/>
        <ellipse class="cls-8" cx="101.13" cy="33.32" rx="3.58" ry="2.09" transform="translate(-5.34 34.73) rotate(-18.99)"/>
        <ellipse class="cls-8" cx="96.71" cy="17.37" rx="3.58" ry="2.09" transform="translate(-1.13 26.42) rotate(-15.46)"/>
        <ellipse class="cls-8" cx="72.66" cy="21.85" rx="3.58" ry="2.09" transform="translate(-3.2 20.16) rotate(-15.46)"/>
      </g>
      <g>
        <g>
          <ellipse class="cls-4" cx="149.44" cy="30.54" rx="20.18" ry="14.15" transform="translate(30.91 126.54) rotate(-50.55)"/>
          <ellipse class="cls-5" cx="145.93" cy="38.79" rx="10.94" ry="6.73" transform="translate(23.26 126.84) rotate(-50.55)"/>
        </g>
        <g>
          <ellipse class="cls-4" cx="171.72" cy="48.87" rx="20.18" ry="14.15" transform="translate(24.88 150.43) rotate(-50.55)"/>
          <ellipse class="cls-5" cx="164.44" cy="53.44" rx="10.94" ry="6.73" transform="translate(18.69 146.48) rotate(-50.55)"/>
        </g>
      </g>
    </g>
  </g>
</svg>